<?xml version="1.0" encoding="utf-8" ?>
<svg baseProfile="full" height="200mm" version="1.1" viewBox="0,0,200,200" width="200mm" xmlns="http://www.w3.org/2000/svg" xmlns:ev="http://www.w3.org/2001/xml-events" xmlns:xlink="http://www.w3.org/1999/xlink"><defs /><rect fill="#1a1a1a" height="200" width="200" x="0" y="0" /><text alignment-baseline="middle" fill="#e1ed5e" style="dominant-baseline: central; font-size:9.0px; font-family:Arial;" text-anchor="middle" x="100.0" y="100.0">2017</text><line stroke="#e1ed5e" stroke-width="0.3" x1="100.0" x2="100.0" y1="15.0" y2="10.0" /><path d="M 100.0 14.0 a86.0,86.0 0 0,1 42.46469731375804,11.215312516191453" fill="none" id="id1" stroke="none" /><text fill="#e1ed5e" style="font-size:6.75px; font-family:Arial;" text-anchor="middle"><textPath startOffset="22.20632615414155" xlink:href="#id1">January</textPath></text><line stroke="#e1ed5e" stroke-width="0.3" x1="143.23703022742887" x2="145.7803849466894" y1="26.81831364943548" y2="22.513508569990506" /><path d="M 143.74570117128098 25.957352633546492 a86.0,86.0 0 0,1 28.547481713284135,27.462654790039103" fill="none" id="id2" stroke="none" /><text fill="#e1ed5e" style="font-size:6.75px; font-family:Arial;" text-anchor="middle"><textPath startOffset="19.985693538727396" xlink:href="#id2">February</textPath></text><line stroke="#e1ed5e" stroke-width="0.3" x1="172.23445277983987" x2="176.4835382374775" y1="55.19839476539836" y2="52.563006222186495" /><path d="M 173.08426987136738 54.67131705675599 a86.0,86.0 0 0,1 12.851231095245387,41.99856678651699" fill="none" id="id3" stroke="none" /><text fill="#e1ed5e" style="font-size:6.75px; font-family:Arial;" text-anchor="middle"><textPath startOffset="22.20632615414155" xlink:href="#id3">March</textPath></text><line stroke="#e1ed5e" stroke-width="0.3" x1="184.98032266829074" x2="189.97916517819016" y1="98.17113171792111" y2="98.06355123074" /><path d="M 185.9800911702706 98.14961562048488 a86.0,86.0 0 0,1 -9.607161424134198,41.387399972396054" fill="none" id="id4" stroke="none" /><text fill="#e1ed5e" style="font-size:6.75px; font-family:Arial;" text-anchor="middle"><textPath startOffset="21.466115282336823" xlink:href="#id4">April</textPath></text><line stroke="#e1ed5e" stroke-width="0.3" x1="174.80103733775053" x2="179.2010983576182" y1="140.37084112569926" y2="142.7455964860345" /><path d="M 175.68104954172406 140.8457921977663 a86.0,86.0 0 0,1 -30.038265399797805,32.042727171017184" fill="none" id="id5" stroke="none" /><text fill="#e1ed5e" style="font-size:6.75px; font-family:Arial;" text-anchor="middle"><textPath startOffset="22.206326154141568" xlink:href="#id5">May</textPath></text><path d="M 114.29624159901734 115.38237550388516 l 7.604635912563751 8.182385864647566 a32.170583055536476,32.170583055536476 0 0,0 -0.4088734814969694,0.37349623105080476 l -7.462662881599918 -8.312074862284954" fill="#ff770a" stroke="none" /><line stroke="#e1ed5e" stroke-width="0.3" x1="143.8653032363475" x2="146.44561519142675" y1="172.8068346515853" y2="177.08958963109032" /><path d="M 144.38136562736335 173.6633856474863 a86.0,86.0 0 0,1 -40.68145358897372,12.25698825130547" fill="none" id="id6" stroke="none" /><text fill="#e1ed5e" style="font-size:6.75px; font-family:Arial;" text-anchor="middle"><textPath startOffset="21.466115282336833" xlink:href="#id6">June</textPath></text><path d="M 109.89434966115114 118.52300852407294 l 3.5055103565964165 6.562593848023245 a28.440177475995938,28.440177475995938 0 0,0 -0.4337927418725022,0.22693986023657226 l -3.392026712197419 -6.621963127204534" fill="#ff4206" stroke="none" /><path d="M 109.57404056367764 118.69057910512821 l 3.7450046737242206 7.311051758948265 a29.214410376176538,29.214410376176538 0 0,0 -0.4495486929720792,0.22541304713397964 l -3.618602073069381 -7.374432646991546" fill="#ff4d07" stroke="none" /><path d="M 108.92500713936063 119.00905698771935 l 3.4469057496394524 7.341442623303911 a29.110359982032914,29.110359982032914 0 0,0 -0.45541356708710384,0.20905803202476694 l -3.320024186784929 -7.399687725662752" fill="#ff4c07" stroke="none" /><path d="M 108.2653958097858 119.30500536409082 l 3.1808945554189263 7.42943083043485 a29.081740693496027,29.081740693496027 0 0,0 -0.46188526327500107,0.19306807750895447 l -3.0525378326464643 -7.483083950963778" fill="#ff4b07" stroke="none" /><path d="M 107.93186726928326 119.44442032107085 l 3.536259661876055 8.668894334155848 a30.362417496190346,30.362417496190346 0 0,0 -0.48562362463752506,0.19323966237267734 l -3.386514961196664 -8.728480840934594" fill="#ff5d08" stroke="none" /><path d="M 106.91757812671514 119.82793768551818 l 2.7557307045185766 7.898784182320449 a29.365694428719124,29.365694428719124 0 0,0 -0.47870314363177163,0.16240209707685085 l -2.6193578279495777 -7.945049266295424" fill="#ff4f07" stroke="none" /><path d="M 106.57524785965236 119.94407469862006 l 2.5108271630136074 7.615853510519255 a29.019069630338386,29.019069630338386 0 0,0 -0.4757450599545353,0.15231854466361722 l -2.379360757968132 -7.657944901842578" fill="#ff4a06" stroke="none" /><path d="M 105.53697534728816 120.25689768951611 l 2.1133538492884445 7.731656729833213 a29.015284167156988,29.015284167156988 0 0,0 -0.48291043433150516,0.12754103481158785 l -1.9799529721454419 -7.766889113948384" fill="#ff4a06" stroke="none" /><path d="M 104.83641907484287 120.43548508189849 l 2.8716735913516036 12.133779543918909 a33.46896608527312,33.46896608527312 0 0,0 -0.5617683888434493,0.12785665633991952 l -2.662385053115292 -12.181412933836512" fill="#ff890c" stroke="none" /><path d="M 103.7750983002368 120.6578951692458 l 2.6514335080702023 14.50903555398915 a35.74931226717499,35.74931226717499 0 0,0 -0.6062930634819637,0.10541182059428128 l -2.401291473116189 -14.552525953104439" fill="#ffa80f" stroke="none" /><path d="M 103.06178313531738 120.77559828337769 l 2.1511138749804863 14.596291034754165 a35.753948721422965,35.753948721422965 0 0,0 -0.6096412756816068,0.0844907257455153 l -1.8995440081120494 -14.631156325992283" fill="#ffa80f" stroke="none" /><path d="M 101.62511606390274 120.93702456842531 l 1.1440868685122636 14.739731768406017 a35.78406667217311,35.78406667217311 0 0,0 -0.6145270006073905,0.04238137990840818 l -0.8901971071259427 -14.75724149283071" fill="#ffa90f" stroke="none" /><path d="M 100.90346689309514 120.98055641714683 l 0.35192999289039406 8.172614986950531 a29.18018890031424,29.18018890031424 0 0,0 -0.5020099230463211,0.017290236783393847 l -0.21119971816942065 -8.17746202216002" fill="#ff4d07" stroke="none" /><line stroke="#e1ed5e" stroke-width="0.3" x1="102.19456741930631" x2="102.32365962044197" y1="184.97166512339345" y2="189.96999836594603" /><path d="M 102.22038585953345 185.97133177190398 a86.0,86.0 0 0,1 -42.740103519485714,-10.115201625700543" fill="none" id="id7" stroke="none" /><text fill="#e1ed5e" style="font-size:6.75px; font-family:Arial;" text-anchor="middle"><textPath startOffset="22.20632615414155" xlink:href="#id7">July</textPath></text><path d="M 100.54218724476979 120.99299961872073 l 0.38188121392977453 14.78609512812904 a35.791025738590065,35.791025738590065 0 0,0 -0.6160152115245474,0.010605260517169432 l -0.12730631251255914 -14.790477865925368" fill="#ffa90f" stroke="none" /><path d="M 98.73552117531835 120.96189622390904 l -0.48671731239274885 8.068555671800477 a29.083222400201944,29.083222400201944 0 0,0 -0.49945204924100994,-0.03444513751876576 l 0.6255321224126889 -8.058982189765427" fill="#ff4b07" stroke="none" /><path d="M 98.01472825383883 120.90594882070398 l -0.7682631107092224 8.09021198451987 a29.126608035444157,29.126608035444157 0 0,0 -0.49871327719006264,-0.05169367029631037 l 0.9074089845048784 -8.0757889457678" fill="#ff4c07" stroke="none" /><path d="M 97.2962882734958 120.8252237178851 l -0.9000854427625841 6.932869553729545 a27.991053858561184,27.991053858561184 0 0,0 -0.47727600425239486,-0.06614610524052365 l 1.01929003820181 -6.916348882996416" fill="#ff3b05" stroke="none" /><path d="M 96.22490169976321 120.6578951692458 l -1.7442372638898185 9.544723787846227 a30.702789074231156,30.702789074231156 0 0,0 -0.519070687825066,-0.0994811327203205 l 1.9082755662865796 -9.513285456777439" fill="#ff6209" stroke="none" /><path d="M 95.86986931433489 120.58985236759428 l -1.7591893995888321 8.770049371534087 a29.944747806549447,29.944747806549447 0 0,0 -0.5045098790143255,-0.10572495040512694 l 1.9098907400325444 -8.73846844040242" fill="#ff5808" stroke="none" /><path d="M 95.51606077576429 120.51570834832081 l -2.1877317979376305 10.009695775590318 a31.24598360039572,31.24598360039572 0 0,0 -0.5244561729305023,-0.11936451747627508 l 2.3597081202609953 -9.970554524536356" fill="#ff6a09" stroke="none" /><path d="M 94.81253420990036 120.34920634021253 l -3.9938719526057858 15.667018877516604 a37.16807019041768,37.16807019041768 0 0,0 -0.618599797800208,-0.16337782896510597 l 4.262962193217483 -15.595949699247917" fill="#ffbb11" stroke="none" /><path d="M 91.40352486487194 119.15986991738527 l -3.2246244033588494 7.187060176363941 a28.877311503388317,28.877311503388317 0 0,0 -0.4517676678598437,-0.20738437850959654 l 3.3478600669861125 -7.13048872752027" fill="#ff4806" stroke="none" /><line stroke="#e1ed5e" stroke-width="0.3" x1="58.666819895761336" x2="56.23545636021788" y1="174.27360380694188" y2="178.64263932499728" /><path d="M 58.180547188652646 175.14741091055294 a86.0,86.0 0 0,1 -31.652253787137756,-30.449443065178592" fill="none" id="id8" stroke="none" /><text fill="#e1ed5e" style="font-size:6.75px; font-family:Arial;" text-anchor="middle"><textPath startOffset="22.20632615414155" xlink:href="#id8">August</textPath></text><path d="M 86.51685102203217 116.09983520530335 l -1.9183455946289008 2.290640561104288 a23.98782261866535,23.98782261866535 0 0,0 -0.3142799116257426,-0.267836158844535 l 1.9574909828316998 -2.2572800120368015" fill="#ff0000" stroke="none" /><line stroke="#e1ed5e" stroke-width="0.3" x1="26.63291911575756" x2="22.317208475507996" y1="142.92168965132927" y2="145.44649492493687" /><path d="M 25.769776987707644 143.4266507060508 a86.0,86.0 0 0,1 -11.730757126820373,-40.83630448921669" fill="none" id="id9" stroke="none" /><text fill="#e1ed5e" style="font-size:6.75px; font-family:Arial;" text-anchor="middle"><textPath startOffset="21.46611528233685" xlink:href="#id9">September</textPath></text><line stroke="#e1ed5e" stroke-width="0.3" x1="15.007084014347285" x2="10.007500721073583" y1="101.09737516637583" y2="101.16192664675087" /><path d="M 14.007167355692545 101.11028546245083 a86.0,86.0 0 0,1 10.666146001902534,-42.60595125391555" fill="none" id="id10" stroke="none" /><text fill="#e1ed5e" style="font-size:6.75px; font-family:Arial;" text-anchor="middle"><textPath startOffset="22.20632615414155" xlink:href="#id10">October</textPath></text><path d="M 79.00175016825051 100.2711162175752 l -30.907416114752337 0.3990571509147733 a51.909992195083916,51.909992195083916 0 0,0 -0.0038455483599890224,-0.8935700078592392 l 30.90970596040183 0.13302233514814124" fill="#8eff24" stroke="none" /><path d="M 79.12142395522702 97.74499172005258 l -36.603011940140725 -3.9533392899510456 a57.81588481391633,57.81588481391633 0 0,0 0.11538301539697132,-0.9885312127011996 l 36.52953857174016 4.582814240977107" fill="#4fff2b" stroke="none" /><path d="M 80.2630227832202 92.82701384747504 l -18.41734255822466 -6.693392898287396 a40.59591833514922,40.59591833514922 0 0,0 0.2443398953869289,-0.6547094414838752 l 18.299398074336104 7.009425476800612" fill="#ffe815" stroke="none" /><path d="M 80.803312248108 91.48605970444005 l -9.512101608099336 -4.218720761797859 a31.405656244025664,31.405656244025664 0 0,0 0.22342534652870868,-0.49228813492404 l 9.438073944607275 4.3818309055639695" fill="#ff6c0a" stroke="none" /><path d="M 81.10775173730289 90.83032412892265 l -17.167208453790124 -8.332398290747468 a40.08250264958804,40.08250264958804 0 0,0 0.30661203363926764,-0.6181111500968598 l 17.021236407197442 8.62666902934329" fill="#ffe115" stroke="none" /><path d="M 81.43458229118936 90.18545643968196 l -6.576992445483633 -3.4769042024542256 a28.439468560387404,28.439468560387404 0 0,0 0.2325155435404488,-0.4308159891894047 l 6.516168802724712 3.589601174976103" fill="#ff4206" stroke="none" /><path d="M 81.6062741919709 89.86733742301443 l -32.42235879021996 -17.860700164827694 a58.016401228369425,58.016401228369425 0 0,0 0.48938867415800397,-0.8705678438713822 l 32.11011247476952 18.41615151863386" fill="#4dff2c" stroke="none" /><line stroke="#e1ed5e" stroke-width="0.3" x1="26.266209847984243" x2="21.928928074336255" y1="57.711370442889674" y2="55.22380399835377" /><path d="M 25.398753493254645 57.213857153982495 a86.0,86.0 0 0,1 29.58750427330803,-30.492523968695096" fill="none" id="id11" stroke="none" /><text fill="#e1ed5e" style="font-size:6.75px; font-family:Arial;" text-anchor="middle"><textPath startOffset="21.46611528233685" xlink:href="#id11">November</textPath></text><path d="M 82.15384107792192 88.93136811851018 l -7.508959106838564 -4.657243305389018 a29.835970918567163,29.835970918567163 0 0,0 0.27445172479405583,-0.4341167188999264 l 7.427679785798546 4.785807672003161" fill="#ff5608" stroke="none" /><path d="M 82.54541684631803 88.32363383020206 l -51.49256404502051 -34.44631289774462 a82.95185731017163,82.95185731017163 0 0,0 0.8041413655089807,-1.179978228051661 l 50.89199821384279 35.3275691490667" fill="#4cdcff" stroke="none" /><path d="M 82.95767976084542 87.72973835380427 l -7.167468697470505 -5.16048959441708 a29.83194544725603,29.83194544725603 0 0,0 0.3036286706443958,-0.41414916553419634 l 7.077577414312476 5.283101203622778" fill="#ff5607" stroke="none" /><path d="M 83.17141714833178 87.43820079747576 l -9.604772095064343 -7.169541220890499 a32.98557334115372,32.98557334115372 0 0,0 0.3435589769148832,-0.45208334208938056 l 9.47993717792535 7.333809338860907" fill="#ff820c" stroke="none" /><path d="M 84.07557802195018 86.31012108654704 l -23.533939546678216 -20.23161551449934 a52.03489289353574,52.03489289353574 0 0,0 0.5897489469769979,-0.6741849948084333 l 23.182198736123375 20.633716065510715" fill="#8dff24" stroke="none" /><path d="M 84.80347519578584 85.50635884689758 l -13.924068686315731 -13.280039846652713 a40.241599390641156,40.241599390641156 0 0,0 0.48239279296986637,-0.4971481766790782 l 13.693411629642746 13.517752218881915" fill="#ffe315" stroke="none" /><path d="M 85.83668400450813 84.49514656593479 l -21.719193747086308 -23.776417603181773 a53.20312734913125,53.20312734913125 0 0,0 0.6814788896404086,-0.6118384757804519 l 21.306703869849926 24.146755087731503" fill="#80ff25" stroke="none" /><path d="M 86.65592168130627 83.78471172551755 l -7.971545483202867 -9.686761791723095 a33.54507438799621,33.54507438799621 0 0,0 0.44901935263651205,-0.3630757559625043 l 7.8036227320018545 9.822543644949732" fill="#ff8a0c" stroke="none" /><line stroke="#e1ed5e" stroke-width="0.3" x1="56.762969772571076" x2="54.21961505331055" y1="26.818313649435495" y2="22.513508569990535" /><path d="M 56.25429882871897 25.957352633546506 a86.0,86.0 0 0,1 42.265352541879196,-11.944610805530505" fill="none" id="id12" stroke="none" /><text fill="#e1ed5e" style="font-size:6.75px; font-family:Arial;" text-anchor="middle"><textPath startOffset="22.20632615414155" xlink:href="#id12">December</textPath></text><path d="M 89.3179101791058 81.91981866633112 l -4.616261538305282 -7.813344307679113 a30.075142966387816,30.075142966387816 0 0,0 0.44798109483136916,-0.25949956530521123 l 4.481083711008592 7.8916480303743715" fill="#ff5908" stroke="none" /><path d="M 89.94658935756843 81.56283822128135 l -22.030832042549736 -40.40280745858659 a67.01895708317015,67.01895708317015 0 0,0 1.0175869734512248,-0.5435597199490543 l 21.332100022570206 40.77604590503739" fill="#37ff7a" stroke="none" /><path d="M 90.91171255644093 81.06846463323043 l -3.5129187311598886 -7.31765424592432 a29.117183112054835,29.117183112054835 0 0,0 0.45370365427825793,-0.21301994918545822 l 3.3864368655820223 7.3770391777497855" fill="#ff4c07" stroke="none" /><path d="M 92.23578459929587 80.48803036053334 l -23.29264620211241 -58.53590891839998 a84.0,84.0 0 0,0 1.3480673400012946,-0.5230291844377941 l 22.28159569711144 58.92818080672833" fill="#4dd2ff" stroke="none" /><path d="M 93.94186890950719 79.89281104454417 l -6.968303264880599 -23.128088242553403 a45.15503500611586,45.15503500611586 0 0,0 0.746154231722074,-0.21782288113591375 l 6.569158815435104 23.244609452608014" fill="#ddff1b" stroke="none" /><path d="M 94.63758080256005 79.69619591428918 l -2.2726360855163743 -8.604914338004425 a29.89996772699684,29.89996772699684 0 0,0 0.49874728206535124,-0.12714178726992875 l 2.1241799147660236 8.642759121443218" fill="#ff5708" stroke="none" /><path d="M 95.33964822691252 79.52364482259891 l -2.2162717443052724 -9.737712862814211 a30.986736816559414,30.986736816559414 0 0,0 0.5211043600718057,-0.11389322953781875 l 2.0483246600799454 9.774419590447899" fill="#ff6609" stroke="none" /><path d="M 96.04723909329186 79.375362276772 l -1.6736104007330697 -8.73253126602395 a29.89146073969445,29.89146073969445 0 0,0 0.5061690131617459,-0.0924991518044005 l 1.5230462664684306 8.760045899179087" fill="#ff5708" stroke="none" /><path d="M 97.11714578562143 79.19881850522333 l -4.228810316228364 -30.51290296127993 a51.80454647962091,51.80454647962091 0 0,0 0.8843412813940097,-0.11481287908966553 l 3.7029543063264962 30.58117416353373" fill="#90ff24" stroke="none" /><path d="M 97.83486435360386 79.11191278185805 l -0.9392678850335264 -9.061561355953184 a30.110110776909327,30.110110776909327 0 0,0 0.5159939185304356,-0.04899984001849859 l 0.7831488394128544 9.076386740486864" fill="#ff5a08" stroke="none" /></svg>