<?xml version="1.0" encoding="utf-8" ?>
<svg baseProfile="full" height="200mm" version="1.1" viewBox="0,0,200,200" width="200mm" xmlns="http://www.w3.org/2000/svg" xmlns:ev="http://www.w3.org/2001/xml-events" xmlns:xlink="http://www.w3.org/1999/xlink"><defs /><rect fill="#1a1a1a" height="200" width="200" x="0" y="0" /><text alignment-baseline="middle" fill="#e1ed5e" style="dominant-baseline: central; font-size:9.0px; font-family:Arial;" text-anchor="middle" x="100.0" y="100.0">2022</text><line stroke="#e1ed5e" stroke-width="0.3" x1="100.0" x2="100.0" y1="15.0" y2="10.0" /><path d="M 100.0 14.0 a86.0,86.0 0 0,1 42.46469731375804,11.215312516191453" fill="none" id="id61" stroke="none" /><text fill="#e1ed5e" style="font-size:6.75px; font-family:Arial;" text-anchor="middle"><textPath startOffset="22.20632615414155" xlink:href="#id61">January</textPath></text><path d="M 100.0 79.0 l 0.0 -63.0 a84.0,84.0 0 0,0 1.4459219170901134,0.012445506434235476 l -1.084441437817585 62.990665870174325" fill="#4dd2ff" stroke="none" /><path d="M 101.08401301168833 79.027996857942 l 1.6101782710583379 -31.151529913201816 a52.193116067454625,52.193116067454625 0 0,0 0.8968217650693647,0.054098737982990835 l -2.1461620849673144 31.119197905838522" fill="#8eff24" stroke="none" /><path d="M 102.88285421437855 79.19881850522331 l 4.291839267584005 -30.967687199079837 a52.26367756292962,52.26367756292962 0 0,0 0.8900529663513574,0.13117067074280947 l -4.824261214364018 30.88922204417606" fill="#8dff24" stroke="none" /><path d="M 103.59715602781102 79.31037775812273 l 2.6769202268186727 -15.396737821856945 a36.62771376291974,36.62771376291974 0 0,0 0.6202377960447946,0.11334449276696518 l -2.941553143966368 15.34837784773924" fill="#ffaf10" stroke="none" /><path d="M 104.307194497241 79.44645832069477 l 3.2091485235860224 -15.313765834548859 a36.64640720043519,36.64640720043519 0 0,0 0.6162831112602967,0.1346956180550426 l -3.472274358999847 15.256256718397946" fill="#ffaf10" stroke="none" /><path d="M 105.36241919743992 79.69619591428918 l 3.9842236300053138 -15.085522604407272 a36.6027891795658,36.6027891795658 0 0,0 0.6077842784387671,0.1661304024814441 l -4.243305797667792 15.014705661099534" fill="#ffae10" stroke="none" /><path d="M 106.0581310904928 79.89281104454417 l 4.511916038911103 -14.975236915541503 a36.64017605459671,36.64017605459671 0 0,0 0.6023202247857747,0.18714382578555916 l -4.7690216364075955 14.895352954873424" fill="#ffaf10" stroke="none" /><path d="M 106.74666289553966 80.11325718540242 l 5.049737546312875 -14.884815414615222 a36.718065377577766,36.718065377577766 0 0,0 0.59678745187374,0.20820742372995563 l -5.3052070022498885 14.795687137713058" fill="#ffb010" stroke="none" /><path d="M 108.09893153111575 80.62456947434976 l 6.043859196109818 -14.458990486724796 a36.67133178378913,36.67133178378913 0 0,0 0.580308532153018,0.24845782840145852 l -6.291851486053151 14.352813130360545" fill="#ffaf10" stroke="none" /><line stroke="#e1ed5e" stroke-width="0.3" x1="143.23703022742887" x2="145.7803849466894" y1="26.81831364943548" y2="22.513508569990506" /><path d="M 143.74570117128098 25.957352633546492 a86.0,86.0 0 0,1 28.547481713284135,27.462654790039103" fill="none" id="id62" stroke="none" /><text fill="#e1ed5e" style="font-size:6.75px; font-family:Arial;" text-anchor="middle"><textPath startOffset="19.985693538727396" xlink:href="#id62">February</textPath></text><path d="M 114.16331599549186 84.49514656593476 l 10.588341224660027 -11.591260044644885 a36.69937194006231,36.69937194006231 0 0,0 0.4627478266385295,0.43007367278049324 l -10.786296935093402 11.40728178578975" fill="#ffb010" stroke="none" /><path d="M 114.42810811169701 84.74124197986012 l 10.762750742141222 -11.382379999791796 a36.665100637950644,36.665100637950644 0 0,0 0.45485109956300745,0.4375663974015593 l -10.957085085316647 11.195430515627935" fill="#ffaf10" stroke="none" /><path d="M 114.68862486808459 84.99185889309783 l 10.948368231629045 -11.1865240474373 a36.652638346273676,36.652638346273676 0 0,0 0.4470997035109384,0.44517971529624456 l -11.139303735307307 10.996408481490937" fill="#ffaf10" stroke="none" /><path d="M 114.94478906791727 85.2469230424477 l 11.176996443010378 -11.033617666241206 a36.7056030859008,36.7056030859008 0 0,0 0.4400053342405081,0.45346417449566095 l -11.365266040953994 10.839589296195431" fill="#ffb010" stroke="none" /><path d="M 115.9244219780498 86.31012108654704 l 23.677546668910814 -20.355071431278212 a52.224271796647045,52.224271796647045 0 0,0 0.5801603965962779,0.6867269175610067 l -24.024417678994208 19.9444855640881" fill="#8eff24" stroke="none" /><path d="M 116.15771136456269 86.58626213691792 l 12.088918215442808 -10.035925034892866 a36.71183423173928,36.71183423173928 0 0,0 0.3994623562187304,0.4896936157634951 l -12.259879063737946 9.826347249521271" fill="#ffb010" stroke="none" /><path d="M 116.38621287248628 86.86637796730983 l 12.240430514757197 -9.810759151564463 a36.68690964838534,36.68690964838534 0 0,0 0.39070845897520523,0.4961600658332904 l -12.407493054326366 9.598606691778134" fill="#ffb010" stroke="none" /><path d="M 116.60985879189232 87.15038557335679 l 12.400100307720015 -9.592887561673798 a36.67756292962761,36.67756292962761 0 0,0 0.3820126412692242,0.5026838568918222 l -12.563388889213353 9.378018928900943" fill="#ffaf10" stroke="none" /><path d="M 116.82858285166822 87.43820079747576 l 12.560892190308502 -9.376155252643212 a36.67444735670837,36.67444735670837 0 0,0 0.3732714555013994,0.5091418458130098 l -12.720426258323528 9.158550963158708" fill="#ffaf10" stroke="none" /><path d="M 117.45458315368197 88.32363383020206 l 25.98895156476221 -17.3854919460104 a52.26788981751645,52.26788981751645 0 0,0 0.49381548583507234,0.7521148636599401 l -26.28436368595521 16.93555901837279" fill="#8dff24" stroke="none" /><path d="M 117.65298651832404 88.62581576622439 l 13.220752081177945 -8.518403938296712 a36.72741209633549,36.72741209633549 0 0,0 0.3378439275387853,0.534387959971668 l -13.365423604962686 8.28956833061084" fill="#ffb010" stroke="none" /><line stroke="#e1ed5e" stroke-width="0.3" x1="172.23445277983987" x2="176.4835382374775" y1="55.19839476539836" y2="52.563006222186495" /><path d="M 173.08426987136738 54.67131705675599 a86.0,86.0 0 0,1 12.851231095245387,41.99856678651699" fill="none" id="id63" stroke="none" /><text fill="#e1ed5e" style="font-size:6.75px; font-family:Arial;" text-anchor="middle"><textPath startOffset="22.20632615414155" xlink:href="#id63">March</textPath></text><path d="M 118.03404312379186 89.2402003453031 l 13.490081414889259 -8.048698361947743 a36.70871865882004,36.70871865882004 0 0,0 0.31908673589324665,0.5454226651266931 l -13.626627825252832 7.815296284467154" fill="#ffb010" stroke="none" /><path d="M 118.73160827565052 90.50648371742162 l 13.93407109847857 -7.0620380753941046 a36.621482617081256,36.621482617081256 0 0,0 0.2801368806302344,0.564738857166388 l -14.053567992062213 6.821139629728767" fill="#ffaf10" stroke="none" /><path d="M 119.47837535516314 92.15188598940014 l 8.691650790875745 -3.5019895193174815 a30.370630932009885,30.370630932009885 0 0,0 0.19119968111305002,0.48658233328655226 l -8.750644021870496 3.3518581811351447" fill="#ff5808" stroke="none" /><path d="M 119.7369772167798 92.82701384747503 l 3.2528234895220596 -1.182169771524745 a24.4609805001897,24.4609805001897 0 0,0 0.14041408760329485,0.3969695340189022 l -3.272690657935164 1.1260026110792283" fill="#ff0000" stroke="none" /><line stroke="#e1ed5e" stroke-width="0.3" x1="184.98032266829074" x2="189.97916517819016" y1="98.17113171792111" y2="98.06355123074" /><path d="M 185.9800911702706 98.14961562048488 a86.0,86.0 0 0,1 -9.607161424134198,41.387399972396054" fill="none" id="id64" stroke="none" /><text fill="#e1ed5e" style="font-size:6.75px; font-family:Arial;" text-anchor="middle"><textPath startOffset="21.466115282336823" xlink:href="#id64">April</textPath></text><line stroke="#e1ed5e" stroke-width="0.3" x1="174.80103733775053" x2="179.2010983576182" y1="140.37084112569926" y2="142.7455964860345" /><path d="M 175.68104954172406 140.8457921977663 a86.0,86.0 0 0,1 -30.038265399797805,32.042727171017184" fill="none" id="id65" stroke="none" /><text fill="#e1ed5e" style="font-size:6.75px; font-family:Arial;" text-anchor="middle"><textPath startOffset="22.206326154141568" xlink:href="#id65">May</textPath></text><line stroke="#e1ed5e" stroke-width="0.3" x1="143.8653032363475" x2="146.44561519142675" y1="172.8068346515853" y2="177.08958963109032" /><path d="M 144.38136562736335 173.6633856474863 a86.0,86.0 0 0,1 -40.68145358897372,12.25698825130547" fill="none" id="id66" stroke="none" /><text fill="#e1ed5e" style="font-size:6.75px; font-family:Arial;" text-anchor="middle"><textPath startOffset="21.466115282336833" xlink:href="#id66">June</textPath></text><line stroke="#e1ed5e" stroke-width="0.3" x1="102.19456741930631" x2="102.32365962044197" y1="184.97166512339345" y2="189.96999836594603" /><path d="M 102.22038585953345 185.97133177190398 a86.0,86.0 0 0,1 -42.740103519485714,-10.115201625700543" fill="none" id="id67" stroke="none" /><text fill="#e1ed5e" style="font-size:6.75px; font-family:Arial;" text-anchor="middle"><textPath startOffset="22.20632615414155" xlink:href="#id67">July</textPath></text><line stroke="#e1ed5e" stroke-width="0.3" x1="58.666819895761336" x2="56.23545636021788" y1="174.27360380694188" y2="178.64263932499728" /><path d="M 58.180547188652646 175.14741091055294 a86.0,86.0 0 0,1 -31.652253787137756,-30.449443065178592" fill="none" id="id68" stroke="none" /><text fill="#e1ed5e" style="font-size:6.75px; font-family:Arial;" text-anchor="middle"><textPath startOffset="22.20632615414155" xlink:href="#id68">August</textPath></text><line stroke="#e1ed5e" stroke-width="0.3" x1="26.63291911575756" x2="22.317208475507996" y1="142.92168965132927" y2="145.44649492493687" /><path d="M 25.769776987707644 143.4266507060508 a86.0,86.0 0 0,1 -11.730757126820373,-40.83630448921669" fill="none" id="id69" stroke="none" /><text fill="#e1ed5e" style="font-size:6.75px; font-family:Arial;" text-anchor="middle"><textPath startOffset="21.46611528233685" xlink:href="#id69">September</textPath></text><line stroke="#e1ed5e" stroke-width="0.3" x1="15.007084014347285" x2="10.007500721073583" y1="101.09737516637583" y2="101.16192664675087" /><path d="M 14.007167355692545 101.11028546245083 a86.0,86.0 0 0,1 10.666146001902534,-42.60595125391555" fill="none" id="id70" stroke="none" /><text fill="#e1ed5e" style="font-size:6.75px; font-family:Arial;" text-anchor="middle"><textPath startOffset="22.20632615414155" xlink:href="#id70">October</textPath></text><line stroke="#e1ed5e" stroke-width="0.3" x1="26.266209847984243" x2="21.928928074336255" y1="57.711370442889674" y2="55.22380399835377" /><path d="M 25.398753493254645 57.213857153982495 a86.0,86.0 0 0,1 29.58750427330803,-30.492523968695096" fill="none" id="id71" stroke="none" /><text fill="#e1ed5e" style="font-size:6.75px; font-family:Arial;" text-anchor="middle"><textPath startOffset="21.46611528233685" xlink:href="#id71">November</textPath></text><line stroke="#e1ed5e" stroke-width="0.3" x1="56.762969772571076" x2="54.21961505331055" y1="26.818313649435495" y2="22.513508569990535" /><path d="M 56.25429882871897 25.957352633546506 a86.0,86.0 0 0,1 42.265352541879196,-11.944610805530505" fill="none" id="id72" stroke="none" /><text fill="#e1ed5e" style="font-size:6.75px; font-family:Arial;" text-anchor="middle"><textPath startOffset="22.20632615414155" xlink:href="#id72">December</textPath></text></svg>