<?xml version="1.0" encoding="utf-8" ?>
<svg baseProfile="full" height="200mm" version="1.1" viewBox="0,0,200,200" width="200mm" xmlns="http://www.w3.org/2000/svg" xmlns:ev="http://www.w3.org/2001/xml-events" xmlns:xlink="http://www.w3.org/1999/xlink"><defs /><rect fill="#1a1a1a" height="200" width="200" x="0" y="0" /><text alignment-baseline="middle" fill="#e1ed5e" style="dominant-baseline: central; font-size:9.0px; font-family:Arial;" text-anchor="middle" x="100.0" y="100.0">2021</text><line stroke="#e1ed5e" stroke-width="0.3" x1="100.0" x2="100.0" y1="15.0" y2="10.0" /><path d="M 100.0 14.0 a86.0,86.0 0 0,1 42.46469731375804,11.215312516191453" fill="none" id="id49" stroke="none" /><text fill="#e1ed5e" style="font-size:6.75px; font-family:Arial;" text-anchor="middle"><textPath startOffset="22.20632615414155" xlink:href="#id49">January</textPath></text><path d="M 100.72285384407766 79.0124445844662 l 0.8482026043434984 -24.62696893446515 a45.64157151151539,45.64157151151539 0 0,0 0.7849462845496046,0.033801438191076595 l -1.2719897212824345 24.608719769749882" fill="#dbff1b" stroke="none" /><path d="M 101.80526077348638 79.07773832637324 l 0.5309919341096562 -6.1539874765972415 a27.176853106251208,27.176853106251208 0 0,0 0.4657269789380598,0.04422638841414869 l -0.6368440401379601 6.143935543667915" fill="#ff2a04" stroke="none" /><path d="M 103.2404852339499 79.25152402106235 l 0.9557769492045005 -6.119736286413969 a27.193922972711437,27.193922972711437 0 0,0 0.46187038547025083,0.07621257106076473 l -1.0609765408136265 6.102377452413579" fill="#ff2a04" stroke="none" /><path d="M 103.59715602781102 79.31037775812273 l 1.06786871125592 -6.142018880746187 a27.234159086510548,27.234159086510548 0 0,0 0.46117142113442455,0.08427612947877612 l -1.1734352534932453 6.122727269916673" fill="#ff2a04" stroke="none" /><path d="M 103.95276090670814 79.375362276772 l 1.1695337476631287 -6.102370069918905 a27.213431391523127,27.213431391523127 0 0,0 0.4593025808960755,0.09213177683340981 l -1.2744027380263296 6.081334337008286" fill="#ff2a04" stroke="none" /><path d="M 104.307194497241 79.44645832069477 l 1.27240210578453 -6.071787501314396 a27.203677182117282,27.203677182117282 0 0,0 0.45748459650682716,0.09998841336270566 l -1.376729426444885 6.04898558985582" fill="#ff2a04" stroke="none" /><path d="M 104.66035177308747 79.52364482259891 l 1.3726706722395645 -6.031152495546105 a27.185388039481325,27.185388039481325 0 0,0 0.4553893130010405,0.1077759373487408 l -1.4762836722031285 6.006630646056496" fill="#ff2a04" stroke="none" /><path d="M 105.71112130821622 79.79150937346287 l 1.695430418941911 -5.999187879242363 a27.234159086510548,27.234159086510548 0 0,0 0.4500247435759797,0.1313745631408283 l -1.7984453802413178 5.969114987182832" fill="#ff2a04" stroke="none" /><path d="M 106.0581310904928 79.89281104454417 l 1.7956314621810927 -5.959775476152622 a27.224404877104703,27.224404877104703 0 0,0 0.44753632299153356,0.13905171404866187 l -1.8979531578833446 5.9279836272214395" fill="#ff2a04" stroke="none" /><path d="M 106.40334571778207 80.00007090966166 l 1.895350675590458 -5.91985514820272 a27.215869943874587,27.215869943874587 0 0,0 0.44493693615944946,0.1466887123805788 l -1.9969704339923249 5.886352711562905" fill="#ff2a04" stroke="none" /><path d="M 106.74666289553966 80.11325718540242 l 1.9938367024364338 -5.877115594714635 a27.206115734468746,27.206115734468746 0 0,0 0.44218747141483383,0.1542705261980343 l -2.0947061779145413 5.841924215344393" fill="#ff2a04" stroke="none" /><path d="M 107.08798089147638 80.2323363322302 l 2.101290715998359 -5.860287827809129 a27.225624153280435,27.225624153280435 0 0,0 0.43978156688884557,0.16197526255447883 l -2.201854608659781 5.823249297448326" fill="#ff2a04" stroke="none" /><path d="M 108.09893153111575 80.62456947434976 l 2.4367329123809833 -5.829503444005391 a27.318289142635958,27.318289142635958 0 0,0 0.43230053292754345,0.18508852735539097 l -2.536717203098842 5.7866953886872095" fill="#ff2c04" stroke="none" /><path d="M 109.08828744355905 81.06846463323043 l 2.6911321441156097 -5.605815581799388 a27.21830849622605,27.21830849622605 0 0,0 0.42062491287616377,0.20639881799439333 l -2.7872283240022053 5.558661603670163" fill="#ff2a04" stroke="none" /><path d="M 109.41281617654863 81.2277094730956 l 2.7987051465128023 -5.58155021027351 a27.243913295916393,27.243913295916393 0 0,0 0.4174020657143981,0.21380955004310337 l -2.894367699815956 5.532548134917906" fill="#ff2b04" stroke="none" /><path d="M 110.36928655335952 81.73862282372117 l 3.065030259908263 -5.397832661376167 a27.207335010644474,27.207335010644474 0 0,0 0.40526396629714584,0.23475504725833007 l -3.1574909586707376 5.344273456727788" fill="#ff2a04" stroke="none" /><line stroke="#e1ed5e" stroke-width="0.3" x1="143.23703022742887" x2="145.7803849466894" y1="26.81831364943548" y2="22.513508569990506" /><path d="M 143.74570117128098 25.957352633546492 a86.0,86.0 0 0,1 28.547481713284135,27.462654790039103" fill="none" id="id50" stroke="none" /><text fill="#e1ed5e" style="font-size:6.75px; font-family:Arial;" text-anchor="middle"><textPath startOffset="19.985693538727396" xlink:href="#id50">February</textPath></text><path d="M 110.68208982089419 81.91981866633111 l 3.181679162832622 -5.385213677669131 a27.254886781497966,27.254886781497966 0 0,0 0.4018641346902502,0.24211864466238253 l -3.2739053637405098 5.329648423548133" fill="#ff2b04" stroke="none" /><path d="M 110.99172775467656 82.1063720568725 l 3.2298703793159302 -5.25796309387468 a27.170756725372556,27.170756725372556 0 0,0 0.3964094988669844,0.24823159182382834 l -3.319899030555178 5.201587160727907" fill="#ff2a04" stroke="none" /><path d="M 111.2981086023043 82.29822771554956 l 3.330394660764402 -5.218031617272394 a27.190265144184245,27.190265144184245 0 0,0 0.3923593769693414,0.25520145296697144 l -3.4197210635180233 5.1599312401458945" fill="#ff2a04" stroke="none" /><path d="M 111.60114157652 82.49532879139004 l 3.3820010754232808 -5.103016497296147 a27.121985678343332,27.121985678343332 0 0,0 0.3869342660764127,0.2612597436921395 l -3.4693400359062356 5.044044841305338" fill="#ff2904" stroke="none" /><path d="M 112.48926042617603 83.11751280151076 l 3.6619372064363622 -4.950061564875402 a27.15734468743952,27.15734468743952 0 0,0 0.3734184634384527,0.2812510448852193 l -3.7466018236331977 4.886293930484336" fill="#ff2904" stroke="none" /><path d="M 116.82858285166822 87.43820079747576 l 5.0182853605284246 -3.7459299808882043 a27.26220243855235,27.26220243855235 0 0,0 0.2774739012543249,0.37847408947945704 l -5.082021874296376 3.658993447737253" fill="#ff2b04" stroke="none" /><path d="M 117.65298651832404 88.62581576622439 l 5.200575977974233 -3.350838637633683 a27.186607315657056,27.186607315657056 0 0,0 0.25008106119441714,0.39556818171281827 l -5.257484635414606 3.2608228082066586" fill="#ff2a04" stroke="none" /><line stroke="#e1ed5e" stroke-width="0.3" x1="172.23445277983987" x2="176.4835382374775" y1="55.19839476539836" y2="52.563006222186495" /><path d="M 173.08426987136738 54.67131705675599 a86.0,86.0 0 0,1 12.851231095245387,41.99856678651699" fill="none" id="id51" stroke="none" /><text fill="#e1ed5e" style="font-size:6.75px; font-family:Arial;" text-anchor="middle"><textPath startOffset="22.20632615414155" xlink:href="#id51">March</textPath></text><path d="M 118.03404312379186 89.2402003453031 l 5.362047697132076 -3.199202672636123 a27.243913295916393,27.243913295916393 0 0,0 0.23681489532089317,0.40479342077958846 l -5.416322266923296 3.106429839502639" fill="#ff2b04" stroke="none" /><path d="M 118.21658344932153 89.55222093294921 l 5.4311296310586075 -3.1149223249064737 a27.260983162376622,27.260983162376622 0 0,0 0.22995594562241256,0.40906596808832396 l -5.4839432179734535 3.020972846883356" fill="#ff2b04" stroke="none" /><path d="M 118.3937258080291 89.86733742301442 l 5.435885292986345 -2.9944988881472803 a27.206115734468746,27.206115734468746 0 0,0 0.2224318915873034,0.41213251356154856 l -5.4866252837921134 2.900485391253273" fill="#ff2a04" stroke="none" /><path d="M 118.89224826269711 90.83032412892265 l 5.585407092335226 -2.7109728780061446 a27.208554286820206,27.208554286820206 0 0,0 0.20087920950396343,0.4231028458008203 l -5.631244495680945 2.6144276165647837" fill="#ff2a04" stroke="none" /><path d="M 119.196687751892 91.48605970444005 l 5.703277601689458 -2.5294657920871058 a27.239036191213472,27.239036191213472 0 0,0 0.18640488360041987,0.4302481716791426 l -5.745973195132559 2.4309184758213602" fill="#ff2b04" stroke="none" /><path d="M 119.34039704204932 91.81776055985345 l 5.71902315474108 -2.4195168648345087 a27.209773562995935,27.209773562995935 0 0,0 0.17877898363955816,0.4329274895049702 l -5.759823825266835 2.3207148048762356" fill="#ff2a04" stroke="none" /><path d="M 119.47837535516314 92.15188598940014 l 5.771133120034686 -2.3252714803226837 a27.22196632475324,27.22196632475324 0 0,0 0.17137712062073904,0.43613607898365114 l -5.810303790537126 2.2255863964432483" fill="#ff2a04" stroke="none" /><path d="M 119.85752413597 93.16781622104841 l 5.896151253997514 -2.0286309954843262 a27.235378362686276,27.235378362686276 0 0,0 0.14870867562930412,0.4446200121341183 l -5.930197223398588 1.926837880427894" fill="#ff2b04" stroke="none" /><path d="M 120.08093135843002 93.85539295169968 l 5.954324546980962 -1.8219764773951834 a27.226843429456164,27.226843429456164 0 0,0 0.13327423546719475,0.44933446782394454 l -5.984804679559859 1.7192126228247089" fill="#ff2a04" stroke="none" /><path d="M 120.18372546131832 94.20196356495316 l 6.0305081028030205 -1.7323415228227825 a27.274395200309655,27.274395200309655 0 0,0 0.12573915619958398,0.452350645445345 l -6.059434029568967 1.6282795739584857" fill="#ff2b04" stroke="none" /><path d="M 120.28053869075195 94.5502522615342 l 6.035883955610287 -1.6219512429287213 a27.250009676795045,27.250009676795045 0 0,0 0.11782861120108275,0.4540417042732858 l -6.062908898681672 1.517813113106585" fill="#ff2b04" stroke="none" /><path d="M 120.53481517161879 95.60439243477599 l 6.169982688975843 -1.3207239684556393 a27.309754209405845,27.309754209405845 0 0,0 0.0944406466226395,0.4605261328449689 l -6.191802631513479 1.2143221794472585" fill="#ff2c04" stroke="none" /><path d="M 120.6074358757038 95.95851677861258 l 6.142746803901487 -1.2047014626632317 a27.25976388620089,27.25976388620089 0 0,0 0.08634111720375301,0.4612377005695953 l -6.162573645015099 1.0987856846310737" fill="#ff2b04" stroke="none" /><path d="M 120.67395015179393 96.31383870115 l 6.134965699195984 -1.0938631932507634 a27.231720534159088,27.231720534159088 0 0,0 0.0783082338409231,0.462179628904082 l -6.15288579455713 0.9880977760308436" fill="#ff2a04" stroke="none" /><path d="M 120.73433829027371 96.67025291283417 l 6.143254981339272 -0.9865511545852851 a27.22196632475324,27.22196632475324 0 0,0 0.0703157734338907,0.4632930917571265 l -6.1593266482124625 0.8806589504360763" fill="#ff2a04" stroke="none" /><path d="M 120.78858239683441 97.02765380044208 l 6.143635633823526 -0.8784154532078448 a27.206115734468746,27.206115734468746 0 0,0 0.06229423307661013,0.4641643929202897 l -6.157845865957973 0.7725327182228906" fill="#ff2a04" stroke="none" /><path d="M 120.91429891909075 98.10471618934814 l 6.240289267188353 -0.5655039773334584 a27.265860267079542,27.265860267079542 0 0,0 0.038335171356716775,0.4677861899803061 l -6.249098922364564 0.45800387014538346" fill="#ff2b04" stroke="none" /><path d="M 120.94382443527127 98.46500227214037 l 6.216266528726922 -0.4555975450833236 a27.232939810334816,27.232939810334816 0 0,0 0.03024076483758727,0.4678112471581405 l -6.223187884568925 0.3485272336721479" fill="#ff2a04" stroke="none" /><path d="M 120.96714384426684 98.82574320788733 l 6.228057358657009 -0.3487999466875409 a27.23781691503774,27.23781691503774 0 0,0 0.022187655572044385,0.4683463413264912 l -6.233138622462549 0.2415424987380499" fill="#ff2b04" stroke="none" /><line stroke="#e1ed5e" stroke-width="0.3" x1="184.98032266829074" x2="189.97916517819016" y1="98.17113171792111" y2="98.06355123074" /><path d="M 185.9800911702706 98.14961562048488 a86.0,86.0 0 0,1 -9.607161424134198,41.387399972396054" fill="none" id="id52" stroke="none" /><text fill="#e1ed5e" style="font-size:6.75px; font-family:Arial;" text-anchor="middle"><textPath startOffset="21.466115282336823" xlink:href="#id52">April</textPath></text><path d="M 120.99513854157772 99.54816195383933 l 6.240029854519236 -0.1342921787282634 a27.241474743564932,27.241474743564932 0 0,0 0.006054084225292815,0.4688954950838275 l -6.241416945862245 0.02686042558397319" fill="#ff2b04" stroke="none" /><path d="M 120.95626037817324 101.35467743843564 l 6.247942541624903 0.4038863158331924 a27.260983162376622,27.260983162376622 0 0,0 -0.034301380444930335,0.4680150835974286 l -6.240064602515635 -0.5113745359273912" fill="#ff2b04" stroke="none" /><path d="M 120.89721153311464 102.0752229133903 l 6.10294023678537 0.6060598754220947 a27.13295916392491,27.13295916392491 0 0,0 -0.05015423943854802,0.4643659676983032 l -6.09160369584577 -0.7110221650051893" fill="#ff2904" stroke="none" /><path d="M 120.70491114924044 103.5080841355445 l 6.154972619553572 1.0428521835100348 a27.24269401974066,27.24269401974066 0 0,0 -0.08231646932464061,0.46167447529228517 l -6.136109707889743 -1.1486454095355383" fill="#ff2b04" stroke="none" /><path d="M 120.64145759157962 103.86396538481128 l 6.124125118616522 1.1464019614700394 a27.230501257983356,27.230501257983356 0 0,0 -0.0902108475059126,0.459983167920412 l -6.103484338134945 -1.2516488564583965" fill="#ff2a04" stroke="none" /><path d="M 120.5718875245553 104.21870165774334 l 6.187093712629944 1.268794731204402 a27.315850590284498,27.315850590284498 0 0,0 -0.09842286157016025,0.459798842598012 l -6.164336812335341 -1.3751073932185829" fill="#ff2c04" stroke="none" /><path d="M 120.49622156327973 104.57218783832717 l 6.140536284102388 1.3697980982640714 a27.291465066769888,27.291465066769888 0 0,0 -0.10622804330875514,0.4576276303279247 l -6.11604767486308 -1.475294385940561" fill="#ff2b04" stroke="none" /><path d="M 120.23288151984713 105.62410040840565 l 5.984108677884725 1.6633927315899995 a27.210992839171666,27.210992839171666 0 0,0 -0.12932654490423598,0.45020266886040694 l -5.95458949609439 -1.7661528759549883" fill="#ff2a04" stroke="none" /><path d="M 120.13307415673323 105.97154293290107 l 6.003685051421433 1.7807147960158654 a27.26220243855235,27.26220243855235 0 0,0 -0.13731481621508865,0.4487527643730039 l -5.972143462700212 -1.8837945329409265" fill="#ff2b04" stroke="none" /><path d="M 120.02730092923936 106.31721596034902 l 5.986097068921476 1.8881959220365832 a27.27683375266112,27.27683375266112 0 0,0 -0.14509684275780144,0.44656216425179507 l -5.952707975147427 -1.9909569862661736" fill="#ff2b04" stroke="none" /><path d="M 119.9155931802556 106.66101706037122 l 3.2280237964152976 1.0796525809998805 a24.403790141281206,24.403790141281206 0 0,0 -0.1366718800167552,0.39723245801762547 l -3.2089610854553117 -1.1350577421068064" fill="#ff0000" stroke="none" /><path d="M 119.54520255179757 107.68017299344265 l 10.631512875678022 4.177590784788803 a32.42284250048384,32.42284250048384 0 0,0 -0.20858291715046073,0.5176856946069106 l -10.558027344270167 -4.359975847238528" fill="#ff750a" stroke="none" /><path d="M 119.26925614724726 108.34839909993367 l 5.791964722719128 2.5093668748029776 a27.312192761757306,27.312192761757306 0 0,0 -0.19061168308445384,0.42977902534071794 l -5.747911954903401 -2.6086942366363832" fill="#ff2c04" stroke="none" /><path d="M 119.12269723197855 108.67885076344098 l 5.664641065079612 2.570901679605723 a27.22074704857751,27.22074704857751 0 0,0 -0.19731850711313054,0.4250065100432174 l -5.61954794112665 -2.6680282569277707" fill="#ff2a04" stroke="none" /><path d="M 118.97047184881838 109.00673069616215 l 5.64598250611823 2.6805787622524013 a27.250009676795045,27.250009676795045 0 0,0 -0.20482501355712474,0.4220001950927078 l -5.599004235946391 -2.7773679133103846" fill="#ff2b04" stroke="none" /><path d="M 118.81262510543309 109.33194174019688 l 5.571697348334478 2.7638224201709463 a27.21952777240178,27.21952777240178 0 0,0 -0.21182149696930913,0.41794390903107126 l -5.5232971815789 -2.8593205409047115" fill="#ff2a04" stroke="none" /><line stroke="#e1ed5e" stroke-width="0.3" x1="174.80103733775053" x2="179.2010983576182" y1="140.37084112569926" y2="142.7455964860345" /><path d="M 175.68104954172406 140.8457921977663 a86.0,86.0 0 0,1 -30.038265399797805,32.042727171017184" fill="none" id="id53" stroke="none" /><text fill="#e1ed5e" style="font-size:6.75px; font-family:Arial;" text-anchor="middle"><textPath startOffset="22.206326154141568" xlink:href="#id53">May</textPath></text><path d="M 117.55443506779139 111.5257021239791 l 5.210273199141641 3.4209051243147557 a27.232939810334816,27.232939810334816 0 0,0 -0.2606541110673355,0.3896425300314632 l -5.150615982663584 -3.510084568552026" fill="#ff2a04" stroke="none" /><path d="M 116.93607887273984 112.41649034213515 l 4.975608230853316 3.6478096263520703 a27.169537449196827,27.169537449196827 0 0,0 -0.2797669696425991,0.3747935747010314 l -4.912079994515625 -3.7329160805624166" fill="#ff2a04" stroke="none" /><path d="M 116.71984013943494 112.70617746262583 l 4.939261464841006 3.7535725331821284 a27.203677182117282,27.203677182117282 0 0,0 -0.28653656853736803,0.370387140352691 l -4.87391807908557 -3.8380376676480723" fill="#ff2a04" stroke="none" /><path d="M 116.498646956653 112.99209946851258 l 4.928519755679099 3.8810345518964886 a27.273175924133927,27.273175924133927 0 0,0 -0.2936179313249279,0.36633351514866486 l -4.860983912299318 -3.9652959006234036" fill="#ff2b04" stroke="none" /><path d="M 116.0416608686014 113.55231037782055 l 4.732398618542503 3.9980233615080065 a27.19514224888717,27.19514224888717 0 0,0 -0.30517804639230656,0.35499101342761136 l -4.662878062579418 -4.078891474097146" fill="#ff2a04" stroke="none" /><path d="M 115.56566222782051 114.09645910891815 l 46.696986683461546 42.289377326754476 a84.0,84.0 0 0,0 -0.9798143680171121,1.0633949807946608 l -45.96212590744871 -43.08692356235047" fill="#4dd2ff" stroke="none" /><path d="M 115.07121518719521 114.62390073753431 l 4.436485058975015 4.304809951962395 a27.181730210954132,27.181730210954132 0 0,0 -0.32871691496585603,0.332988499372424 l -4.361727518953623 -4.380538945315484" fill="#ff2a04" stroke="none" /><path d="M 114.29624159901734 115.38237550388516 l 4.316264156080326 4.644185365988164 a27.340236113799108,27.340236113799108 0 0,0 -0.34748196840263323,0.3174165394178549 l -4.235682638210829 -4.717794671992601" fill="#ff2c04" stroke="none" /><path d="M 113.20401910651253 116.32954008644616 l 3.901408161392042 4.824909783235409 a27.204896458293014,27.204896458293014 0 0,0 -0.3666734335200052,0.29130755173676953 l -3.8177772351546855 -4.891351248977304" fill="#ff2a04" stroke="none" /><path d="M 112.92097659922987 116.55440617244103 l 3.8357820796513864 4.914419126748075 a27.234159086510548,27.234159086510548 0 0,0 -0.3720332307408453,0.2852592170212825 l -3.7506201204170475 -4.97971768559673" fill="#ff2a04" stroke="none" /><path d="M 112.34349029814194 116.9893568818739 l 3.6535966831775255 5.028744419418991 a27.215869943874587,27.215869943874587 0 0,0 -0.38137556063339056,0.27210133636275785 l -3.5664937946952504 -5.090890017625968" fill="#ff2a04" stroke="none" /><path d="M 111.1453310114006 117.79835938074945 l 3.320303469295325 5.302305901836197 a27.256106057673698,27.256106057673698 0 0,0 -0.39978321879116663,0.24557950549813193 l -3.2285410505718493 -5.358673874162707" fill="#ff2b04" stroke="none" /><line stroke="#e1ed5e" stroke-width="0.3" x1="143.8653032363475" x2="146.44561519142675" y1="172.8068346515853" y2="177.08958963109032" /><path d="M 144.38136562736335 173.6633856474863 a86.0,86.0 0 0,1 -40.68145358897372,12.25698825130547" fill="none" id="id54" stroke="none" /><text fill="#e1ed5e" style="font-size:6.75px; font-family:Arial;" text-anchor="middle"><textPath startOffset="21.466115282336833" xlink:href="#id54">June</textPath></text><path d="M 109.57404056367764 118.69057910512821 l 2.8316332087114695 5.52795490390109 a27.210992839171666,27.210992839171666 0 0,0 -0.4187202859071767,0.209955043844405 l -2.736059015121532 -5.575877788654797" fill="#ff2a04" stroke="none" /><path d="M 109.2508944713604 118.85261126421891 l 2.746264182237219 5.596675134156258 a27.234159086510548,27.234159086510548 0 0,0 -0.422631783045721,0.20288893915310588 l -2.6495197311912655 -5.6431183498089235" fill="#ff2a04" stroke="none" /><path d="M 108.92500713936063 119.00905698771935 l 2.6728384067053677 5.69278397189799 a27.289026514418424,27.289026514418424 0 0,0 -0.4269199321113294,0.1959780017319317 l -2.574450478826619 -5.737949043963996" fill="#ff2b04" stroke="none" /><path d="M 108.59647513512805 119.15986991738527 l 2.5245386820288944 5.626705363390828 a27.167098896845363,27.167098896845363 0 0,0 -0.42830784639398306,0.18775757305178015 l -2.4273101609771572 -5.6693274897370625" fill="#ff2904" stroke="none" /><path d="M 106.91757812671514 119.82793768551818 l 2.0158307306744696 5.777999956083749 a27.119547125991872,27.119547125991872 0 0,0 -0.4420877052505836,0.14998015237563275 l -1.916073292486659 -5.8118430953575055" fill="#ff2904" stroke="none" /><path d="M 106.2309692047433 120.05430185196036 l 1.822983577861516 5.867251424348455 a27.143932649506482,27.143932649506482 0 0,0 -0.44739020867155604,0.13479499987489657 l -1.721718394749714 -5.897761793329076" fill="#ff2904" stroke="none" /><path d="M 105.88484417918355 120.15858648285463 l 1.7842455759839269 6.11194921309078 a27.36706018966518,27.36706018966518 0 0,0 -0.45334034574237014,0.1281185100011125 l -1.678774062136951 -6.141756516430411" fill="#ff2c04" stroke="none" /><path d="M 104.48393922423573 120.51570834832081 l 1.3089943731057034 5.989141566210007 a27.130520611573445,27.130520611573445 0 0,0 -0.45709570705909225,0.09578884967254635 l -1.2057072046172332 -6.010786396609094" fill="#ff2904" stroke="none" /><path d="M 104.13013068566511 120.58985236759428 l 1.2064266003240462 6.014372784673901 a27.13417844010064,27.13417844010064 0 0,0 -0.45873867134409335,0.08791835817033525 l -1.1027203144082485 -6.034248341192704" fill="#ff2904" stroke="none" /><path d="M 103.7750983002368 120.6578951692458 l 1.1250771961553447 6.1565884983784835 a27.25854461002516,27.25854461002516 0 0,0 -0.4622932713826414,0.08037561093815825 l -1.0189349533006533 -6.175042687837648" fill="#ff2b04" stroke="none" /><path d="M 103.06178313531738 120.77559828337769 l 0.8936472123809052 6.063804871523495 a27.129301335397717,27.129301335397717 0 0,0 -0.4625822452039458,0.064109684126249 l -0.7891363759901289 -6.078289121142347" fill="#ff2904" stroke="none" /><path d="M 102.34483914955558 120.86867818915974 l 1.3644268215703177 12.143171636061094 a33.219585833172054,33.219585833172054 0 0,0 -0.5687942961843325,0.058957854459069696 l -1.1551999287803825 -12.164858858975922" fill="#ff810b" stroke="none" /><path d="M 101.62511606390274 120.93702456842531 l 0.476589582278268 6.140095476782443 a27.15856396361525,27.15856396361525 0 0,0 -0.46639950138319214,0.032165640301689113 l -0.3708273201161455 -6.147389461600417" fill="#ff2904" stroke="none" /><path d="M 100.90346689309514 120.98055641714683 l 0.26506008578341905 6.155298136782054 a27.16100251596671,27.16100251596671 0 0,0 -0.4672722589110637,0.016093801393121318 l -0.15906747519770306 -6.158948736601269" fill="#ff2904" stroke="none" /><line stroke="#e1ed5e" stroke-width="0.3" x1="102.19456741930631" x2="102.32365962044197" y1="184.97166512339345" y2="189.96999836594603" /><path d="M 102.22038585953345 185.97133177190398 a86.0,86.0 0 0,1 -42.740103519485714,-10.115201625700543" fill="none" id="id55" stroke="none" /><text fill="#e1ed5e" style="font-size:6.75px; font-family:Arial;" text-anchor="middle"><textPath startOffset="22.20632615414155" xlink:href="#id55">July</textPath></text><path d="M 100.54218724476979 120.99299961872073 l 0.15922487424302037 6.165043085242275 a27.167098896845363,27.167098896845363 0 0,0 -0.4675849833329689,0.008049899530711276 l -0.053080201017383546 -6.166870462052146" fill="#ff2904" stroke="none" /><path d="M 99.45781275523022 120.99299961872073 l -0.16045258679649138 6.212579004642129 a27.21465066769886,27.21465066769886 0 0,0 -0.46819521059636593,-0.016125589715315157 l 0.26736814906750034 -6.20889661650072" fill="#ff2a04" stroke="none" /><path d="M 98.73552117531835 120.96189622390904 l -0.3681843219921696 6.103575163319364 a27.11467002128895,27.11467002128895 0 0,0 -0.46564570185085513,-0.03211365387257665 l 0.4731927846219548 -6.096333164930502" fill="#ff2904" stroke="none" /><path d="M 98.37488393609728 120.93702456842531 l -0.28627455803449864 3.6881903932999283 a24.699283917166635,24.699283917166635 0 0,0 -0.42359940240392935,-0.036549938852739834 l 0.3497182781799697 -3.6827162021685247" fill="#ff0400" stroke="none" /><path d="M 96.93821686468263 120.77559828337769 l -0.8920472869956952 6.052948646370578 a27.11832784981614,27.11832784981614 0 0,0 -0.4612235308028895,-0.07203362997042219 l 0.9961066814071019 -6.03669670905305" fill="#ff2904" stroke="none" /><path d="M 96.58105272829116 120.7198165907248 l -0.9976947351040443 6.046320777142413 a27.128082059221985,27.128082059221985 0 0,0 -0.4600806822563114,-0.07999092395741977 l 1.1016243888324055 -6.028251274663988" fill="#ff2904" stroke="none" /><path d="M 96.22490169976321 120.6578951692458 l -1.1079807571722662 6.063034260530531 a27.16344106831817,27.16344106831817 0 0,0 -0.4592333942345802,-0.08801317298974516 l 1.2121817659785414 -6.043063889192318" fill="#ff2904" stroke="none" /><path d="M 95.86986931433489 120.58985236759428 l -1.209304183151293 6.028718336933109 a27.148809754209406,27.148809754209406 0 0,0 -0.45740384300325904,-0.09585342255559852 l 1.3128994875839388 -6.00700893365097" fill="#ff2904" stroke="none" /><path d="M 95.51606077576429 120.51570834832081 l -1.3071719863491882 5.980803461404228 a27.121985678343332,27.121985678343332 0 0,0 -0.4552358790510179,-0.10361020395123341 l 1.4099280147930688 -5.957416523875307" fill="#ff2904" stroke="none" /><path d="M 94.46302465271185 120.25689768951611 l -1.6135134082469074 5.903001906542368 a27.119547125991872,27.119547125991872 0 0,0 -0.4492402466786032,-0.12695978105090933 l 1.7148848230301244 -5.874353332152937" fill="#ff2904" stroke="none" /><path d="M 94.11515582081647 120.15858648285463 l -1.729918680813214 5.925851946740452 a27.17319527772402,27.17319527772402 0 0,0 -0.4478725195258294,-0.13494031617883287 l 1.8316661747792895 -5.895196261455894" fill="#ff2a04" stroke="none" /><path d="M 93.76903079525671 120.05430185196036 l -1.8389016722107694 5.918483625712087 a27.19758080123863,27.19758080123863 0 0,0 -0.44588316833480474,-0.14275770997443576 l 1.9405061856365144 -5.885953069077945" fill="#ff2a04" stroke="none" /><path d="M 93.42475214034765 119.94407469862007 l -1.9134009447983884 5.803737316981832 a27.111012192761756,27.111012192761756 0 0,0 -0.4419485735376314,-0.14993295134456752 l 2.0130192512732457 -5.769941378739142" fill="#ff2903" stroke="none" /><path d="M 93.08242187328487 119.8279376855182 l -2.014625810931086 5.774546280078919 a27.11588929746468,27.11588929746468 0 0,0 -0.4393812725741416,-0.15754649190818842 l 2.113726644134954 -5.7390122471307725" fill="#ff2904" stroke="none" /><path d="M 91.07499286063937 119.00905698771935 l -2.623610091731153 5.5879343252655165 a27.17319527772402,27.17319527772402 0 0,0 -0.4216857195698049,-0.20243477119248615 l 2.7194084793012 -5.541945277573468" fill="#ff2a04" stroke="none" /><path d="M 90.7491055286396 118.85261126421891 l -2.7441157260023354 5.592296745629634 a27.229281981807624,27.229281981807624 0 0,0 -0.4190017175726358,-0.21009615952389174 l 2.839971351257732 -5.54423274519644" fill="#ff2a04" stroke="none" /><line stroke="#e1ed5e" stroke-width="0.3" x1="58.666819895761336" x2="56.23545636021788" y1="174.27360380694188" y2="178.64263932499728" /><path d="M 58.180547188652646 175.14741091055294 a86.0,86.0 0 0,1 -31.652253787137756,-30.449443065178592" fill="none" id="id56" stroke="none" /><text fill="#e1ed5e" style="font-size:6.75px; font-family:Arial;" text-anchor="middle"><textPath startOffset="22.20632615414155" xlink:href="#id56">August</textPath></text><path d="M 89.7882731507175 118.34994917583269 l -4.802496182604121 8.629839220005 a30.876137633055933,30.876137633055933 0 0,0 -0.46218818750769763,-0.26244251523760354 l 4.9503331370330255 -8.545893538972763" fill="#ff5f08" stroke="none" /><path d="M 89.4739219176387 118.17145234162733 l -3.0795959429273374 5.316389491936912 a27.143932649506482,27.143932649506482 0 0,0 -0.4022887593889577,-0.23767928995969326 l 3.1706525733446775 -5.262591629683469" fill="#ff2904" stroke="none" /><path d="M 89.1626897886671 117.98757091392108 l -3.160585012087778 5.245881674121863 a27.124424230694792,27.124424230694792 0 0,0 -0.39785175490067054,-0.24439304262320247 l 3.2504159669207575 -5.190700164670282" fill="#ff2904" stroke="none" /><path d="M 88.8546689885994 117.79835938074946 l -3.2517101799276955 5.192766937580765 a27.126862783046256,27.126862783046256 0 0,0 -0.3936213687319159,-0.2512277810751924 l 3.3406133507065348 -5.136024727681768" fill="#ff2904" stroke="none" /><path d="M 88.54995079064634 117.60387380957326 l -3.336624558645989 5.129892160842744 a27.119547125991872,27.119547125991872 0 0,0 -0.38913360513215733,-0.25789653467465834 l 3.4244328625181084 -5.071697605076768" fill="#ff2904" stroke="none" /><path d="M 87.65650970185807 116.9893568818739 l -3.6005629141396405 4.955749698540805 a27.125643506870524,27.125643506870524 0 0,0 -0.3753866519126027,-0.2777020708575671 l 3.6853345364708074 -4.893037678943472" fill="#ff2904" stroke="none" /><path d="M 87.36589467227662 116.77436683061367 l -3.7029396377596804 4.91641206276008 a27.15490613508806,27.15490613508806 0 0,0 -0.37095059288632043,-0.2844290964804783 l 3.7870189591394876 -4.851943624452235" fill="#ff2904" stroke="none" /><path d="M 87.07902340077011 116.55440617244103 l -3.7712647202048744 4.831759231402811 a27.129301335397717,27.129301335397717 0 0,0 -0.3656545462284426,-0.2904980860507746 l 3.8538767591506753 -4.766127231346905" fill="#ff2904" stroke="none" /><path d="M 86.51685102203217 116.09983520530335 l -3.937695337285362 4.701887231430762 a27.13295916392491,27.13295916392491 0 0,0 -0.3554863708866983,-0.30295319738176424 l 4.0180471847491175 -4.633409643826046" fill="#ff2904" stroke="none" /><path d="M 85.70375840098266 115.38237550388516 l -4.198396942587363 4.517363380993872 a27.167098896845363,27.167098896845363 0 0,0 -0.3398011125600974,-0.3213031612416296 l 4.275533889538277 -4.4444255830063115" fill="#ff2904" stroke="none" /><path d="M 85.18274418774928 114.88116024355367 l -4.323874262378873 4.342522433758507 a27.128082059221985,27.128082059221985 0 0,0 -0.32806813158105796,-0.33233128522892574 l 4.397983019015465 -4.267450654548917" fill="#ff2904" stroke="none" /><path d="M 84.9287848128048 114.62390073753433 l -4.407608529005352 4.276790478902287 a27.14149409715502,27.14149409715502 0 0,0 -0.3224583315727083,-0.33809627148256355 l 4.4805734119570175 -4.200287090837223" fill="#ff2904" stroke="none" /><path d="M 84.67929136418377 114.36230785411682 l -4.466340897644667 4.1869449043267215 a27.121985678343332,27.121985678343332 0 0,0 -0.3163632292475521,-0.3433498028515948 l 4.537750534887948 -4.109443846673783" fill="#ff2904" stroke="none" /><path d="M 83.95833913139862 113.55231037782056 l -4.697937144642465 3.9689096310660092 a27.150029030385134,27.150029030385134 0 0,0 -0.29852620505345423,-0.3595940449445815 l 4.765559349589455 -3.887454329007667" fill="#ff2904" stroke="none" /><path d="M 83.72743513129214 113.27417163493432 l -4.835474375733314 3.9444867676172173 a27.2402554673892,27.2402554673892 0 0,0 -0.2932635158203019,-0.3658913273127681 l 4.902655803608478 -3.8606676067261896" fill="#ff2b04" stroke="none" /><path d="M 83.50135304334701 112.99209946851258 l -2.896762631909345 2.2810978590738555 a24.687091155409327,24.687091155409327 0 0,0 -0.26002934601393624,-0.3361229820316006 l 2.9355987951413502 -2.2308968829290023" fill="#ff0400" stroke="none" /><path d="M 83.28015986056508 112.70617746262583 l -4.975179836342401 3.7808685598581806 a27.248790400619313,27.248790400619313 0 0,0 -0.2805830438248117,-0.375886839429039 l 5.039524146862298 -3.694668840919834" fill="#ff2b04" stroke="none" /><path d="M 83.06392112726016 112.41649034213515 l -4.958891760512503 3.6355541394651176 a27.148809754209406,27.148809754209406 0 0,0 -0.2730655825256783,-0.3792642111373993 l 5.020737135413788 -3.54965632287658" fill="#ff2904" stroke="none" /><path d="M 82.44556493220864 111.52570212397912 l -5.2011001829459635 3.414882404025474 a27.22196632475324,27.22196632475324 0 0,0 -0.2538061245571677,-0.3939127416075346 l 5.2591111708801765 -3.324848062496491" fill="#ff2a04" stroke="none" /><path d="M 82.24976979558568 111.22182372390057 l -5.245713474383719 3.3163779420159023 a27.206115734468746,27.206115734468746 0 0,0 -0.24684414593820464,-0.39799136013952424 l 5.302022259989879 -3.225590250511114" fill="#ff2a04" stroke="none" /><path d="M 82.05923443525364 110.91462005526583 l -5.22493981455977 3.178695618185411 a27.11588929746468,27.11588929746468 0 0,0 -0.23916101287333782,-0.40084761409147357 l 5.278881703131339 -3.0882859102078264" fill="#ff2904" stroke="none" /><line stroke="#e1ed5e" stroke-width="0.3" x1="26.63291911575756" x2="22.317208475507996" y1="142.92168965132927" y2="145.44649492493687" /><path d="M 25.769776987707644 143.4266507060508 a86.0,86.0 0 0,1 -11.730757126820373,-40.83630448921669" fill="none" id="id57" stroke="none" /><text fill="#e1ed5e" style="font-size:6.75px; font-family:Arial;" text-anchor="middle"><textPath startOffset="21.46611528233685" xlink:href="#id57">September</textPath></text><path d="M 81.87401531095188 110.60418214915194 l -6.350233691526017 3.715055259608059 a28.357112444358428,28.357112444358428 0 0,0 -0.24285571752383078,-0.42343941387215417 l 6.413241405202225 -3.605195999877598" fill="#ff3b05" stroke="none" /><path d="M 81.69416730710424 110.29060199501025 l -5.351453509312762 3.008313201754012 a27.13905554480356,27.13905554480356 0 0,0 -0.2254138815342555,-0.40919167087256436 l 5.402443800298534 -2.915751012483625" fill="#ff2904" stroke="none" /><path d="M 81.18737489456691 109.33194174019688 l -5.4952380630211275 2.725895039380522 a27.13417844010064,27.13417844010064 0 0,0 -0.2039543667240472,-0.4202064047394948 l 5.541345686359894 -2.6308996786757426" fill="#ff2904" stroke="none" /><path d="M 81.02952815118164 109.00673069616217 l -5.536939925527962 2.628807927788303 a27.129301335397717,27.129301335397717 0 0,0 -0.19665563288803423,-0.4235787379344109 l 5.581370175255823 -2.5331091225750653" fill="#ff2904" stroke="none" /><path d="M 80.87730276802145 108.67885076344099 l -5.570267389945986 2.5280701149709777 a27.11710857364041,27.11710857364041 0 0,0 -0.1892501913227071,-0.42670922084131685 l 5.612958665999972 -2.431812557636965" fill="#ff2904" stroke="none" /><path d="M 80.73074385275274 108.34839909993369 l -5.630859271671888 2.439567989353567 a27.1366169924521,27.1366169924521 0 0,0 -0.1820078989117647,-0.43021290876323287 l 5.672018151775959 -2.342280554924175" fill="#ff2904" stroke="none" /><path d="M 80.58989483394504 108.01547362559985 l -5.686668705317204 2.348330554370631 a27.152467582736598,27.152467582736598 0 0,0 -0.1746774946137495,-0.43353521643425313 l 5.726248814188341 -2.2500959700935725" fill="#ff2904" stroke="none" /><path d="M 79.97269907076064 106.31721596034903 l -5.831444599969155 1.8394138595597285 a27.11467002128895,27.11467002128895 0 0,0 -0.13657172193252395,-0.4463242892624372 l 5.862243094407809 -1.7387625977452432" fill="#ff2904" stroke="none" /><path d="M 79.86692584326677 105.97154293290107 l -5.887959813864829 1.7463902701580831 a27.14149409715502,27.14149409715502 0 0,0 -0.12899623603849592,-0.44905282036631655 l 5.917148686789429 -1.6447799742871705" fill="#ff2904" stroke="none" /><path d="M 79.76711848015287 105.62410040840567 l -5.915973950103549 1.644453434685367 a27.140274820979293,27.140274820979293 0 0,0 -0.12124197093185517,-0.45118647695769043 l 5.943403997377179 -1.5423760245521376" fill="#ff2904" stroke="none" /><path d="M 79.4281124754447 104.21870165774334 l -25.642995157616266 5.258639784599871 a47.176640216760205,47.176640216760205 0 0,0 -0.15628962008870842,-0.7969174057118832 l 25.72971471068064 -4.8164586518200325" fill="#c8ff1d" stroke="none" /><path d="M 79.29508885075956 103.50808413554451 l -7.892069384251796 1.337172770457695 a29.004548093671374,29.004548093671374 0 0,0 -0.07916618153680056,-0.49296788799968655 l 7.913917320149888 -1.2011256527647947" fill="#ff4406" stroke="none" /><path d="M 79.18660465613746 102.79330883721812 l -12.13396376897951 1.6284660751600837 a33.24275208051093,33.24275208051093 0 0,0 -0.07123207962400911,-0.5677897604716468 l 12.160197357850368 -1.4193585604010284" fill="#ff810b" stroke="none" /><path d="M 79.07016306316243 101.71520430193888 l -12.171467781654641 0.9974542067865199 a33.21227017611767,33.21227017611767 0 0,0 -0.04178964155347095,-0.5701864569722801 l 12.186833981872448 -0.7877946133174791" fill="#ff810b" stroke="none" /><line stroke="#e1ed5e" stroke-width="0.3" x1="15.007084014347285" x2="10.007500721073583" y1="101.09737516637583" y2="101.16192664675087" /><path d="M 14.007167355692545 101.11028546245083 a86.0,86.0 0 0,1 10.666146001902534,-42.60595125391555" fill="none" id="id58" stroke="none" /><text fill="#e1ed5e" style="font-size:6.75px; font-family:Arial;" text-anchor="middle"><textPath startOffset="22.20632615414155" xlink:href="#id58">October</textPath></text><path d="M 79.01574976396665 99.18683210126434 l -6.445133563883284 -0.2497575876317946 a27.449970969614863,27.449970969614863 0 0,0 0.022360474161205547,-0.47199426860232174 l 6.43987948148858 0.36066296285712546" fill="#ff2e04" stroke="none" /><path d="M 79.32604984820605 96.31383870115002 l -6.024533915919515 -1.0741732277295182 a27.119547125991872,27.119547125991872 0 0,0 0.08589700214179724,-0.4588652201500854 l 6.005151189867856 1.1777165253421762" fill="#ff2904" stroke="none" /><path d="M 79.3925641242962 95.95851677861259 l -6.0266878946731195 -1.1819402546619926 a27.14149409715502,27.14149409715502 0 0,0 0.09385878148830554,-0.4576887518047575 l 6.005449817269819 1.2855046626301525" fill="#ff2904" stroke="none" /><path d="M 79.71946130924805 94.55025226153421 l -5.921666096910678 -1.5912588374343593 a27.131739887749177,27.131739887749177 0 0,0 0.12508149327078488,-0.44998468197525937 l 5.893397833073532 1.6929548228285611" fill="#ff2904" stroke="none" /><path d="M 79.91906864156998 93.8553929516997 l -11.734927856934286 -3.5907956226713327 a33.27201470872847,33.27201470872847 0 0,0 0.1722928163598992,-0.5462153111186681 l 11.671379556806183 3.7922611002164155" fill="#ff810b" stroke="none" /><path d="M 80.14247586403 93.16781622104843 l -5.791233427616254 -1.9925329468748052 a27.124424230694792,27.124424230694792 0 0,0 0.15570313218180995,-0.4401937218872538 l 5.756077214624635 2.09192429518867" fill="#ff2904" stroke="none" /><path d="M 80.52162464483688 92.15188598940014 l -5.695360845090083 -2.294741754831481 a27.140274820979293,27.140274820979293 0 0,0 0.17832234939255573,-0.431821713455947 l 5.655016808811328 2.3924380387407393" fill="#ff2904" stroke="none" /><path d="M 80.65960295795068 91.81776055985345 l -12.386912314932037 -5.240465449831034 a34.449835494484226,34.449835494484226 0 0,0 0.2357505430927976,-0.5441447572557787 l 12.294871061996558 5.452909351673412" fill="#ff920d" stroke="none" /><path d="M 80.803312248108 91.48605970444005 l -5.6141116434844225 -2.4899197175576986 a27.14149409715502,27.14149409715502 0 0,0 0.19308934915561088,-0.4254467859012514 l 5.57041997736546 2.586188512301021" fill="#ff2904" stroke="none" /><path d="M 80.95270993114464 91.15688171328213 l -11.085544938080476 -5.146705111634987 a33.22202438552351,33.22202438552351 0 0,0 0.24527631737928285,-0.5166144776603757 l 10.995310426859442 5.336762004935895" fill="#ff810b" stroke="none" /><path d="M 81.10775173730289 90.83032412892265 l -5.539337355909835 -2.6886121433485903 a27.15734468743952,27.15734468743952 0 0,0 0.20774073803857088,-0.4187926513740931 l 5.492236604917851 2.7835643832216452" fill="#ff2904" stroke="none" /><path d="M 81.6062741919709 89.86733742301443 l -32.08667458305988 -17.675779782786808 a57.63315269982582,57.63315269982582 0 0,0 0.48615583852384114,-0.8648169900077003 l 31.777661103243606 18.225480282729293" fill="#52ff2b" stroke="none" /><line stroke="#e1ed5e" stroke-width="0.3" x1="26.266209847984243" x2="21.928928074336255" y1="57.711370442889674" y2="55.22380399835377" /><path d="M 25.398753493254645 57.213857153982495 a86.0,86.0 0 0,1 29.58750427330803,-30.492523968695096" fill="none" id="id59" stroke="none" /><text fill="#e1ed5e" style="font-size:6.75px; font-family:Arial;" text-anchor="middle"><textPath startOffset="21.46611528233685" xlink:href="#id59">November</textPath></text><path d="M 81.96595687620814 89.24020034530311 l -5.2908469075587545 -3.156721559232634 a27.16100251596671,27.16100251596671 0 0,0 0.24300587025992662,-0.3994377566159168 l 5.235725239012611 3.247327089055625" fill="#ff2904" stroke="none" /><path d="M 82.34701348167596 88.62581576622439 l -5.15547835419992 -3.3217813061287766 a27.13295916392491,27.13295916392491 0 0,0 0.25634620908661204,-0.39043286334141575 l 5.097535509755388 3.4100322334478594" fill="#ff2904" stroke="none" /><path d="M 83.39014120810768 87.1503855733568 l -4.850837413773084 -3.752674311942056 a27.13295916392491,27.13295916392491 0 0,0 0.2889607427820107,-0.36695079891028715 l 4.785522590397102 3.835617504805391" fill="#ff2904" stroke="none" /><path d="M 83.6137871275137 86.86637796730984 l -4.805501909362974 -3.8516310172509 a27.15856396361525,27.15856396361525 0 0,0 0.29551299136789666,-0.3622639855676238 l 4.738490425918685 3.933779172426606" fill="#ff2904" stroke="none" /><path d="M 83.84228863543731 86.58626213691792 l -4.717851584229868 -3.916645309470085 a27.131739887749177,27.131739887749177 0 0,0 0.3014069977828537,-0.3567708167139367 l 4.64973397295989 3.9972750758131377" fill="#ff2904" stroke="none" /><path d="M 84.5562425177563 85.77008943001954 l -8.979318023641673 -8.273562480033926 a33.209831623766206,33.209831623766206 0 0,0 0.39097883853590293,-0.4170689647389349 l 8.835571863135314 8.426900861650912" fill="#ff800b" stroke="none" /><path d="M 85.05521093208273 85.24692304244772 l -4.379312004593295 -4.323134085819611 a27.15368685891233,27.15368685891233 0 0,0 0.33122868889145807,-0.32980628763722747 l 4.304247515534524 4.397876224106947" fill="#ff2904" stroke="none" /><path d="M 85.57189188830299 84.74124197986013 l -8.424820008477077 -8.909850749480158 a33.26226049932262,33.26226049932262 0 0,0 0.41940877844678104,-0.3897947507463668 l 8.27020334623544 9.053550086301174" fill="#ff810b" stroke="none" /><path d="M 86.37877921826538 84.01681056812374 l -4.005698660314642 -4.7003012079999955 a27.17563383007548,27.17563383007548 0 0,0 0.3586439092554497,-0.30035395995476555 l 3.924197214100082 4.768556325348574" fill="#ff2a04" stroke="none" /><path d="M 86.65592168130627 83.78471172551755 l -3.8994046551955996 -4.738429217271348 a27.1366169924521,27.1366169924521 0 0,0 0.36323861004929103,-0.293713694441088 l 3.8172626465818085 4.80484900897657" fill="#ff2904" stroke="none" /><path d="M 87.22198572758235 83.33499621200491 l -3.7547627384965594 -4.896937343006182 a27.170756725372556,27.170756725372556 0 0,0 0.37360288141649617,-0.28138994468289374 l 3.669913703321673 4.96084387719493" fill="#ff2a04" stroke="none" /><path d="M 88.39885842347998 82.49532879139004 l -6.758613581118752 -10.19790231704233 a33.23421714728082,33.23421714728082 0 0,0 0.47957446037482626,-0.3119285692592705 l 6.5820720949596385 10.312729810461134" fill="#ff810b" stroke="none" /><path d="M 89.00827224532344 82.1063720568725 l -6.39336918790496 -10.407878734328506 a33.214708728469134,33.214708728469134 0 0,0 0.48973970389837124,-0.29506269186382433 l 6.2132674177889395 10.516388035650948" fill="#ff810b" stroke="none" /><line stroke="#e1ed5e" stroke-width="0.3" x1="56.762969772571076" x2="54.21961505331055" y1="26.818313649435495" y2="22.513508569990535" /><path d="M 56.25429882871897 25.957352633546506 a86.0,86.0 0 0,1 42.265352541879196,-11.944610805530505" fill="none" id="id60" stroke="none" /><text fill="#e1ed5e" style="font-size:6.75px; font-family:Arial;" text-anchor="middle"><textPath startOffset="22.20632615414155" xlink:href="#id60">December</textPath></text><path d="M 89.3179101791058 81.91981866633112 l -3.126480440514478 -5.291785993982475 a27.146371201857946,27.146371201857946 0 0,0 0.4043558863643095,-0.23422902874872417 l 3.0349278216848483 5.344819180121246" fill="#ff2904" stroke="none" /><path d="M 90.58718382345135 81.22770947309562 l -2.7533443718280655 -5.491085717507896 a27.142713373330754,27.142713373330754 0 0,0 0.41945668480696174,-0.205825573554394 l 2.658416420010678 5.537666451197119" fill="#ff2904" stroke="none" /><path d="M 90.91171255644093 81.06846463323043 l -2.672135917215973 -5.566245118869037 a27.174414553899748,27.174414553899748 0 0,0 0.4234314541530013,-0.19880674532076276 l 2.575926251763363 5.611416846829807" fill="#ff2a04" stroke="none" /><path d="M 91.56875222667455 80.76684994638697 l -2.478953283769309 -5.65492579087457 a27.174414553899748,27.174414553899748 0 0,0 0.43002377756192006,-0.18411373952684712 l 2.3812457484170806 5.696759058364203" fill="#ff2a04" stroke="none" /><path d="M 91.90106846888425 80.62456947434976 l -2.367609072527647 -5.664135438164251 a27.13905554480356,27.13905554480356 0 0,0 0.4325656978563169,-0.1764544092334362 l 2.2697595050829493 5.704050733581264" fill="#ff2904" stroke="none" /><path d="M 93.59665428221793 80.00007090966166 l -3.7327031743680323 -11.658561335416897 a33.24153280433521,33.24153280433521 0 0,0 0.5464506360748888,-0.16978487261386224 l 3.531467165582415 11.721086342913285" fill="#ff810b" stroke="none" /><path d="M 93.94186890950719 79.89281104454417 l -1.7854310092127825 -5.92591974866811 a27.189045868008517,27.189045868008517 0 0,0 0.44927928033169273,-0.13115694197787664 l 1.6831615111576685 5.955775019564686" fill="#ff2a04" stroke="none" /><path d="M 95.33964822691252 79.52364482259891 l -5.812677189247067 -25.53936879742192 a47.192490807044706,47.192490807044706 0 0,0 0.793636737801234,-0.17345825150184183 l 5.372197727292312 25.635640547019626" fill="#c8ff1d" stroke="none" /><path d="M 96.04723909329186 79.375362276772 l -1.154386725028563 -6.023336234633456 a27.13295916392491,27.13295916392491 0 0,0 0.45945774560036473,-0.08396296622846626 l 1.050533858325305 6.042314682212659" fill="#ff2904" stroke="none" /><path d="M 96.40284397218896 79.31037775812273 l -1.050533858325305 -6.042314682212659 a27.13295916392491,27.13295916392491 0 0,0 0.4608349564189664,-0.07604171639540355 l 0.946369695767453 6.05950266154769" fill="#ff2904" stroke="none" /><path d="M 97.11714578562143 79.19881850522333 l -1.341891362686645 -9.682392415925564 a30.774937100832204,30.774937100832204 0 0,0 0.5253505562735921,-0.06820557986623582 l 1.1750260779051953 9.704056318955937" fill="#ff5e08" stroke="none" /><path d="M 97.83486435360386 79.11191278185805 l -1.275573721926554 -12.306062763837023 a33.37199535513838,33.37199535513838 0 0,0 0.5718925041512214,-0.054308084271608485 l 1.0635560906850963 12.326196392623812" fill="#ff830c" stroke="none" /><path d="M 98.55514903715128 79.0497635885617 l -0.8430021671569616 -12.22347159078054 a33.25250628991678,33.25250628991678 0 0,0 0.5713698209810057,-0.03446658794487072 l 0.632470297336333 12.236171448105717" fill="#ff810b" stroke="none" /></svg>